<mxfile host="app.diagrams.net" agent="Mozilla/5.0 (Macintosh; Intel Mac OS X 10_15_7) AppleWebKit/537.36 (KHTML, like Gecko) Chrome/133.0.0.0 Safari/537.36" version="26.0.14">
  <diagram name="Page-1" id="bySl66SuyFjlAWXr1FlB">
    <mxGraphModel dx="1312" dy="1933" grid="1" gridSize="10" guides="1" tooltips="1" connect="1" arrows="1" fold="1" page="1" pageScale="1" pageWidth="850" pageHeight="1100" math="0" shadow="0">
      <root>
        <mxCell id="0" />
        <mxCell id="1" parent="0" />
        <mxCell id="wVhuUVmPffNn5wUYsDlq-17" style="edgeStyle=orthogonalEdgeStyle;rounded=0;orthogonalLoop=1;jettySize=auto;html=1;" edge="1" parent="1" source="wVhuUVmPffNn5wUYsDlq-1" target="wVhuUVmPffNn5wUYsDlq-16">
          <mxGeometry relative="1" as="geometry" />
        </mxCell>
        <mxCell id="wVhuUVmPffNn5wUYsDlq-1" value="Twilio" style="rounded=0;whiteSpace=wrap;html=1;" vertex="1" parent="1">
          <mxGeometry x="580" y="120" width="200" height="100" as="geometry" />
        </mxCell>
        <mxCell id="wVhuUVmPffNn5wUYsDlq-8" style="edgeStyle=orthogonalEdgeStyle;rounded=0;orthogonalLoop=1;jettySize=auto;html=1;entryX=0.75;entryY=0;entryDx=0;entryDy=0;" edge="1" parent="1" source="wVhuUVmPffNn5wUYsDlq-2" target="wVhuUVmPffNn5wUYsDlq-3">
          <mxGeometry relative="1" as="geometry">
            <Array as="points">
              <mxPoint x="445" y="190" />
            </Array>
          </mxGeometry>
        </mxCell>
        <mxCell id="wVhuUVmPffNn5wUYsDlq-9" value="Here is the price of Bitcoin" style="edgeLabel;html=1;align=center;verticalAlign=middle;resizable=0;points=[];" vertex="1" connectable="0" parent="wVhuUVmPffNn5wUYsDlq-8">
          <mxGeometry x="-0.3115" y="1" relative="1" as="geometry">
            <mxPoint as="offset" />
          </mxGeometry>
        </mxCell>
        <mxCell id="wVhuUVmPffNn5wUYsDlq-2" value="CoinDesk" style="rounded=0;whiteSpace=wrap;html=1;" vertex="1" parent="1">
          <mxGeometry x="80" y="140" width="200" height="100" as="geometry" />
        </mxCell>
        <mxCell id="wVhuUVmPffNn5wUYsDlq-3" value="Is the price below our target ??" style="rounded=0;whiteSpace=wrap;html=1;" vertex="1" parent="1">
          <mxGeometry x="130" y="330" width="410" height="220" as="geometry" />
        </mxCell>
        <mxCell id="wVhuUVmPffNn5wUYsDlq-6" style="edgeStyle=orthogonalEdgeStyle;rounded=0;orthogonalLoop=1;jettySize=auto;html=1;entryX=0.465;entryY=1.02;entryDx=0;entryDy=0;entryPerimeter=0;" edge="1" parent="1" source="wVhuUVmPffNn5wUYsDlq-3" target="wVhuUVmPffNn5wUYsDlq-2">
          <mxGeometry relative="1" as="geometry" />
        </mxCell>
        <mxCell id="wVhuUVmPffNn5wUYsDlq-7" value="Give me price of Bitcoin" style="edgeLabel;html=1;align=center;verticalAlign=middle;resizable=0;points=[];" vertex="1" connectable="0" parent="wVhuUVmPffNn5wUYsDlq-6">
          <mxGeometry x="-0.1344" relative="1" as="geometry">
            <mxPoint as="offset" />
          </mxGeometry>
        </mxCell>
        <mxCell id="wVhuUVmPffNn5wUYsDlq-10" style="edgeStyle=orthogonalEdgeStyle;rounded=0;orthogonalLoop=1;jettySize=auto;html=1;entryX=0.005;entryY=0.63;entryDx=0;entryDy=0;entryPerimeter=0;" edge="1" parent="1" source="wVhuUVmPffNn5wUYsDlq-3" target="wVhuUVmPffNn5wUYsDlq-1">
          <mxGeometry relative="1" as="geometry" />
        </mxCell>
        <mxCell id="wVhuUVmPffNn5wUYsDlq-11" value="Send SMS to this Number" style="edgeLabel;html=1;align=center;verticalAlign=middle;resizable=0;points=[];" vertex="1" connectable="0" parent="wVhuUVmPffNn5wUYsDlq-10">
          <mxGeometry x="0.1611" y="-1" relative="1" as="geometry">
            <mxPoint as="offset" />
          </mxGeometry>
        </mxCell>
        <mxCell id="wVhuUVmPffNn5wUYsDlq-12" style="edgeStyle=orthogonalEdgeStyle;rounded=0;orthogonalLoop=1;jettySize=auto;html=1;entryX=1.002;entryY=0.909;entryDx=0;entryDy=0;entryPerimeter=0;" edge="1" parent="1" source="wVhuUVmPffNn5wUYsDlq-1" target="wVhuUVmPffNn5wUYsDlq-3">
          <mxGeometry relative="1" as="geometry">
            <Array as="points">
              <mxPoint x="680" y="530" />
            </Array>
          </mxGeometry>
        </mxCell>
        <mxCell id="wVhuUVmPffNn5wUYsDlq-13" value="SMS sent" style="edgeLabel;html=1;align=center;verticalAlign=middle;resizable=0;points=[];" vertex="1" connectable="0" parent="wVhuUVmPffNn5wUYsDlq-12">
          <mxGeometry x="-0.4123" y="3" relative="1" as="geometry">
            <mxPoint as="offset" />
          </mxGeometry>
        </mxCell>
        <mxCell id="wVhuUVmPffNn5wUYsDlq-16" value="" style="verticalLabelPosition=bottom;sketch=0;aspect=fixed;html=1;verticalAlign=top;strokeColor=none;align=center;outlineConnect=0;shape=mxgraph.citrix.cell_phone;" vertex="1" parent="1">
          <mxGeometry x="667.5" y="-30" width="25" height="60" as="geometry" />
        </mxCell>
      </root>
    </mxGraphModel>
  </diagram>
</mxfile>
